<?xml version="1.0" encoding="UTF-8"?>
<svg id="_レイヤー_2" data-name="レイヤー 2" xmlns="http://www.w3.org/2000/svg" viewBox="0 0 71.29 53.77">
  <defs>
    <style>
      .cls-1 {
        fill: #8dd1e3;
      }

      .cls-2 {
        fill: #865d37;
      }

      .cls-3 {
        fill: #1c1d1d;
      }

      .cls-4 {
        fill: none;
      }

      .cls-5 {
        fill: #efefef;
      }

      .cls-6 {
        fill: #231815;
      }
    </style>
  </defs>
  <g id="_レイヤー_1-2" data-name="レイヤー 1">
    <g>
      <g>
        <path class="cls-5" d="m46.13,53.77h-2.87c-4.17-.15-3.51-6.78.6-6.16L52.85,7.42c-2.86-.69-10.15-.92-14.94-1.02-3.76.02-3.62-6.41.14-6.16,7.1-.14,20.32.98,20.48,3.35.53.74.72,1.69.52,2.59l-10.11,45.22c-.31,1.39-1.46,2.36-2.8,2.36Z"/>
        <path class="cls-5" d="m14.01,53.77c-4.13,0-7.79-1.42-10.31-3.99-2.62-2.34-6.43-11.72-.74-12.56,4.23.14,1.98,6.19,4.72,8.1,6.04,5.66,15.99.34,13.52-8.39-2.07-5-5.67-11.19-6.97-17.19C11.49,5.5,19.15-1.29,32.16.2c4.76-.53,4.87,1.83,5.83,5.98.52,1.89-.98,4-2.83,3.87-3.06-.03-6.86-.06-8.79.2-13.46,2.55-2.18,17.48.3,24.73,2.44,8.9-2.39,18.23-12.66,18.79Z"/>
        <path class="cls-5" d="m62.12,24.96c-4.35.11-6.9-6.11-4.13-9.63,1.86-3.29,9.06-3.97,7.2-8.03-2.04-.38-6.05,1.01-8.42,1.19-7.33,1.34-12.6,1.52-17.9,1.58-3.73.05-3.74-6.21,0-6.16,5.36.02,12.13-.48,19.17-1.88,3.98-.53,7.81-2.3,10.88.58,5.08,5.04,1.1,13.03-3.82,14.69,4.03,1.97.56,8-3,7.65Zm2.53-4.63s0,0,0,0c0,0,0,0,0,0Z"/>
        <path class="cls-5" d="m14.01,53.77c-18.12.01-15.9-24.54-7.79-13.98,1.57.6,5.57-1.45,8.21-2.81,18.7-11.78,15.55,16.85-.42,16.79Z"/>
      </g>
      <g>
        <g>
          <path class="cls-1" d="m24.45,39.62c0,3.86-3.1,10.62-9.64,10.95-6.55.33-11.85-3.37-11.85-10.37,4.03,9.35,20.89-9.69,21.49-.58Z"/>
          <path class="cls-6" d="m14.01,51.22c-3.55,0-6.63-1.16-8.73-3.31-1.91-1.94-2.91-4.61-2.91-7.71,0-.3.2-.56.47-.62.27-.07.55.08.67.36.45,1.05,1.09,1.72,1.94,2.05,2.48.96,6.46-1.1,9.98-2.91,3.51-1.81,6.54-3.36,8.32-2.26.78.48,1.22,1.41,1.31,2.77,0,.01,0,.03,0,.05,0,4.53-3.64,11.26-10.21,11.58-.28.01-.55.02-.83.02Zm-10.24-8.82c.35,1.8,1.14,3.36,2.34,4.58,2.03,2.07,5.11,3.11,8.68,2.94,6.32-.31,9.06-6.95,9.07-10.28-.06-.9-.3-1.47-.71-1.73-1.23-.76-4.27.8-7.2,2.31-3.73,1.92-7.96,4.09-10.9,2.96-.47-.18-.89-.44-1.27-.77Z"/>
        </g>
        <path class="cls-4" d="m34.29,3.18c-4.82-.01-10.02-.23-11.95.72-3.87,1.92-6.61,5.68-5.5,13.75"/>
        <path class="cls-4" d="m35.21,6.87c-3.37-.03-7.06-.06-9.19.22-4.76.63-9.71,4.76-9.18,10.56"/>
        <path class="cls-4" d="m16.84,17.65c.04.43.1.86.2,1.3-.08-.45-.14-.88-.2-1.3"/>
        <path class="cls-3" d="m46.13,51.8h-2.87c-.63,0-1.14-.54-1.14-1.22s.51-1.22,1.14-1.22h1.98L54.94,5.97c-1-.39-3.67-1.11-10.26-1.33l-.91-.03c-1.31-.05-3.43-.13-5.83-.18-.63-.01-1.13-.56-1.12-1.24,0-.67.52-1.25,1.16-1.2,2.42.04,4.56.13,5.88.18l.9.03c9.52.33,11.85,1.65,12.4,2.41.21.29.28.67.2,1.02l-10.11,45.22c-.12.55-.58.93-1.11.93Z"/>
        <path class="cls-3" d="m14.01,51.8c-3.69,0-6.9-1.22-9.11-3.47-2.02-2.06-3.08-4.87-3.08-8.13,0-.67.51-1.22,1.14-1.22s1.14.54,1.14,1.22c0,2.62.8,4.76,2.38,6.37,1.92,1.96,4.87,2.96,8.28,2.78,5.4-.27,8.24-5.54,8.54-9.19.05-.54.17-1.99-.44-3.92-.25-.8-.98-2.31-1.82-4.05-1.74-3.62-4.12-8.57-5.11-12.94h0c-.11-.49-.18-.96-.23-1.43-1.04-7.53.98-12.45,6.16-15.02,1.87-.93,5.77-.9,10.29-.85.72,0,1.44.01,2.15.01.51,0,.96.37,1.1.9l.92,3.69c.09.37.02.76-.2,1.06-.22.3-.53.49-.91.47-3.34-.03-7.01-.06-9.05.21-2.81.37-5.49,2.03-6.97,4.33-.96,1.49-1.38,3.17-1.22,4.93.05.37.11.75.18,1.15.92,4.08,3.23,8.87,4.91,12.38.92,1.91,1.65,3.42,1.95,4.39.76,2.42.6,4.24.55,4.84-.37,4.59-3.93,11.13-10.7,11.47-.29.01-.57.02-.85.02ZM29.64,4.37c-2.93,0-5.73.1-6.82.64-1.61.8-3.45,2.1-4.42,4.82,1.91-2.1,4.64-3.57,7.48-3.94,1.89-.25,4.84-.26,7.85-.24l-.31-1.25c-.43,0-.86,0-1.29-.01-.82,0-1.66-.02-2.48-.02Z"/>
        <path class="cls-3" d="m62.12,22.98c-.97,0-1.94-.5-2.67-1.41-1.12-1.39-1.16-3.77-.1-5.18,1.09-1.44,2.55-2.25,3.97-3.03,2.34-1.29,3.77-2.21,3.89-4.8.05-1.24-.25-2.2-.89-2.78-.63-.57-1.57-.76-2.64-.52-1.17.26-3.32.62-5.05.92-.96.16-1.78.3-2.18.38-5.6,1.11-11.93,1.43-15.21,1.52-.69.02-1.5.02-2.37.02-.63,0-1.14-.55-1.14-1.22,0-.67.51-1.21,1.14-1.21.13.02.19,0,.28,0,.73,0,1.43,0,2.02-.02,3.21-.09,9.41-.4,14.86-1.48.42-.08,1.25-.22,2.24-.39,1.7-.29,3.82-.65,4.94-.89,1.78-.4,3.4-.02,4.58,1.05,1.18,1.07,1.78,2.76,1.69,4.75-.18,4.12-2.81,5.57-5.12,6.84-1.26.7-2.46,1.35-3.24,2.4-.35.47-.4,1.52.05,2.08.35.44.75.64,1.12.54.32-.08.57-.37.66-.76.15-.65.77-1.04,1.38-.88.61.16.98.82.83,1.47-.3,1.27-1.2,2.25-2.35,2.54-.23.06-.47.09-.7.09Z"/>
        <path class="cls-3" d="m14.01,51.8c-3.69,0-6.9-1.22-9.11-3.47-2.02-2.06-3.08-4.87-3.08-8.13,0-.57.37-1.07.89-1.19.52-.12,1.05.16,1.28.68.39.9.92,1.47,1.63,1.75,2.26.87,6.14-1.13,9.56-2.89,3.65-1.88,6.8-3.5,8.83-2.24.94.58,1.47,1.67,1.57,3.22,0,.03,0,.06,0,.09,0,4.75-3.82,11.82-10.73,12.16-.29.01-.57.02-.85.02Zm-9.36-8.16c.4,1.12,1.01,2.1,1.82,2.93,1.92,1.96,4.87,2.95,8.28,2.78,5.95-.3,8.54-6.53,8.56-9.69-.04-.48-.14-1.06-.44-1.25-.98-.61-4.15,1.02-6.7,2.33-4.01,2.06-8.16,4.2-11.32,2.98-.07-.03-.14-.05-.2-.08Z"/>
        <path class="cls-2" d="m40.7,6.07c3.35-.06,7.51-.26,11.21-.67.49-.06,1.24-.37.14-.6-1.27-.26-3.72-.57-8.4-.68-.8-.02-2.88-.08-5.19-.11-.22,0-.46.2-.35.51.09.25.2.57.34.83.3.57.58.71,2.24.71Z"/>
      </g>
    </g>
  </g>
</svg>