<svg width="52" height="52" viewBox="0 0 52 52" fill="none" xmlns="http://www.w3.org/2000/svg">
<g clip-path="url(#clip0_109_29)">
<path d="M51.8326 15.2876C51.3863 5.85837 46.1416 0.613734 36.7124 0.167382C33.9227 0.055794 33.03 0 26 0C18.97 0 18.0773 0 15.2876 0.167382C5.85837 0.613734 0.613734 5.80257 0.167382 15.2876C0.055794 18.0773 0 18.97 0 26C0 33.03 0 33.9227 0.167382 36.7124C0.613734 46.1416 5.85837 51.3863 15.2876 51.8326C18.0773 51.9442 18.97 52 26 52C33.03 52 33.9227 52 36.7124 51.8326C46.1416 51.3863 51.3863 46.1416 51.8326 36.7124C51.9442 33.9227 52 33.03 52 26C52 18.97 52 18.0773 51.8326 15.2876ZM47.1459 36.4893C46.8112 43.4635 43.5193 46.8112 36.4893 47.1459C33.7554 47.2575 32.9185 47.3133 26 47.3133C19.0815 47.3133 18.2446 47.3133 15.5107 47.1459C8.42489 46.8112 5.18884 43.4635 4.85408 36.4893C4.74249 33.7554 4.6867 32.9185 4.6867 26C4.6867 19.0815 4.6867 18.2446 4.85408 15.5107C5.18884 8.53648 8.48069 5.18884 15.5107 4.85408C18.2446 4.74249 19.0815 4.6867 26 4.6867C32.9185 4.6867 33.7554 4.6867 36.4893 4.85408C43.5193 5.18884 46.8112 8.53648 47.1459 15.5107C47.2575 18.2446 47.3133 19.0815 47.3133 26C47.3133 32.9185 47.3133 33.7554 47.1459 36.4893Z" fill="#3E3E3E"/>
<path d="M25.8147 12.48C18.4499 12.48 12.48 18.4499 12.48 25.8147C12.48 33.1795 18.4499 39.1495 25.8147 39.1495C33.1795 39.1495 39.1495 33.1795 39.1495 25.8147C39.1495 18.4499 33.1795 12.48 25.8147 12.48ZM25.8147 34.5186C21.0165 34.5186 17.1667 30.613 17.1667 25.8705C17.1667 21.128 21.0722 17.2225 25.8147 17.2225C30.5572 17.2225 34.4628 21.128 34.4628 25.8705C34.4628 30.613 30.5572 34.5186 25.8147 34.5186Z" fill="#3E3E3E"/>
<path d="M40.5644 8.32007C38.8348 8.32007 37.4399 9.71492 37.4399 11.4445C37.4399 13.1741 38.8348 14.569 40.5644 14.569C42.294 14.569 43.6889 13.1741 43.6889 11.4445C43.6889 9.71492 42.294 8.32007 40.5644 8.32007Z" fill="#3E3E3E"/>
</g>
<defs>
<clipPath id="clip0_109_29">
<rect width="52" height="52" fill="white"/>
</clipPath>
</defs>
</svg>
