<svg width="279" height="54" viewBox="0 0 279 54" fill="none" xmlns="http://www.w3.org/2000/svg">
<g clip-path="url(#clip0_132_5)">
<path d="M45.971 53.5417H43.101C38.931 53.3917 39.591 46.7617 43.701 47.3817L52.691 7.19167C49.831 6.50167 42.541 6.27167 37.751 6.17167C33.991 6.19167 34.131 -0.238332 37.891 0.0116684C44.991 -0.128332 58.211 0.991669 58.371 3.36167C58.901 4.10167 59.091 5.05167 58.891 5.95167L48.781 51.1717C48.471 52.5617 47.321 53.5317 45.981 53.5317L45.971 53.5417Z" fill="#EFEFEF"/>
<path d="M14.0078 53.7717C9.87781 53.7717 6.21781 52.3517 3.69781 49.7817C1.07781 47.4417 -2.73219 38.0617 2.95781 37.2217C7.18781 37.3617 4.93781 43.4117 7.67781 45.3217C13.7178 50.9817 23.6678 45.6617 21.1978 36.9317C19.1278 31.9317 15.5278 25.7417 14.2278 19.7417C11.4878 5.50171 19.1478 -1.2883 32.1578 0.201705C36.9178 -0.328295 37.0278 2.0317 37.9878 6.1817C38.5078 8.0717 37.0078 10.1817 35.1578 10.0517C32.0978 10.0217 28.2978 9.9917 26.3678 10.2517C12.9078 12.8017 24.1878 27.7317 26.6678 34.9817C29.1078 43.8817 24.2778 53.2117 14.0078 53.7717Z" fill="#EFEFEF"/>
<path d="M62.0513 24.9545C57.7013 25.0645 55.1513 18.8445 57.9213 15.3245C59.7813 12.0345 66.9813 11.3545 65.1213 7.29446C63.0813 6.91446 59.0713 8.30446 56.7013 8.48446C49.3713 9.82446 44.1013 10.0045 38.8013 10.0645C35.0713 10.1145 35.0613 3.85446 38.8013 3.90446C44.1613 3.92446 50.9313 3.42446 57.9713 2.02446C61.9513 1.49446 65.7812 -0.275543 68.8512 2.60446C73.9313 7.64446 69.9512 15.6345 65.0312 17.2945C69.0612 19.2645 65.5912 25.2945 62.0312 24.9445L62.0513 24.9545Z" fill="#EFEFEF"/>
<path d="M13.8444 53.6338C-4.2756 53.6438 -2.0556 29.0938 6.0544 39.6538C7.6244 40.2538 11.6244 38.2038 14.2644 36.8438C32.9644 25.0638 29.8144 53.6938 13.8444 53.6338Z" fill="#EFEFEF"/>
<path d="M25.49 40.5409C25.49 44.4009 22.39 51.1609 15.85 51.4909C9.3 51.8209 4 48.1209 4 41.1209C8.03 50.4709 24.89 31.4309 25.49 40.5409Z" fill="#8DD1E3"/>
<path d="M14.64 51.7675C11.09 51.7675 8.01 50.6075 5.91 48.4575C4 46.5175 3 43.8475 3 40.7475C3 40.4475 3.2 40.1875 3.47 40.1275C3.74 40.0575 4.02 40.2075 4.14 40.4875C4.59 41.5375 5.23 42.2075 6.08 42.5375C8.56 43.4975 12.54 41.4375 16.06 39.6275C19.57 37.8175 22.6 36.2675 24.38 37.3675C25.16 37.8475 25.6 38.7775 25.69 40.1375C25.69 40.1475 25.69 40.1675 25.69 40.1875C25.69 44.7175 22.05 51.4475 15.48 51.7675C15.2 51.7775 14.93 51.7875 14.65 51.7875L14.64 51.7675ZM4.4 42.9475C4.75 44.7475 5.54 46.3075 6.74 47.5275C8.77 49.5975 11.85 50.6375 15.42 50.4675C21.74 50.1575 24.48 43.5175 24.49 40.1875C24.43 39.2875 24.19 38.7175 23.78 38.4575C22.55 37.6975 19.51 39.2575 16.58 40.7675C12.85 42.6875 8.62 44.8575 5.68 43.7275C5.21 43.5475 4.79 43.2875 4.41 42.9575L4.4 42.9475Z" fill="#231815"/>
<path d="M46.3101 51.813H43.4401C42.8101 51.813 42.3001 51.273 42.3001 50.593C42.3001 49.913 42.8101 49.373 43.4401 49.373H45.4201L55.1201 5.98301C54.1201 5.59301 51.4501 4.87301 44.8601 4.65301L43.9501 4.62301C42.6401 4.57301 40.5201 4.49301 38.1201 4.44301C37.4901 4.43301 36.9901 3.88301 37.0001 3.20301C37.0001 2.53301 37.5201 1.95301 38.1601 2.00301C40.5801 2.04301 42.7201 2.13301 44.0401 2.18301L44.9401 2.21301C54.4601 2.54301 56.7901 3.86301 57.3401 4.62301C57.5501 4.91301 57.6201 5.29301 57.5401 5.64301L47.4301 50.863C47.3101 51.413 46.8501 51.793 46.3201 51.793L46.3101 51.813Z" fill="#1C1D1D"/>
<path d="M14.19 51.8701C10.5 51.8701 7.29 50.6501 5.08 48.4001C3.06 46.3401 2 43.5301 2 40.2701C2 39.6002 2.51 39.0501 3.14 39.0501C3.77 39.0501 4.28 39.5901 4.28 40.2701C4.28 42.8901 5.08 45.0301 6.66 46.6401C8.58 48.6001 11.53 49.6001 14.94 49.4201C20.34 49.1501 23.18 43.8801 23.48 40.2301C23.53 39.6901 23.65 38.2401 23.04 36.3101C22.79 35.5101 22.06 34.0001 21.22 32.2601C19.48 28.6401 17.1 23.6902 16.11 19.3202C16 18.8302 15.93 18.3601 15.88 17.8901C14.84 10.3601 16.86 5.44015 22.04 2.87015C23.91 1.94015 27.81 1.97015 32.33 2.02015C33.05 2.02015 33.77 2.03015 34.48 2.03015C34.99 2.03015 35.44 2.40015 35.58 2.93015L36.5 6.62015C36.59 6.99015 36.52 7.38015 36.3 7.68015C36.08 7.98015 35.77 8.17015 35.39 8.15015C32.05 8.12015 28.38 8.09015 26.34 8.36015C23.53 8.73015 20.85 10.3901 19.37 12.6901C18.41 14.1801 17.99 15.8601 18.15 17.6201C18.2 17.9901 18.26 18.3701 18.33 18.7701C19.25 22.8501 21.56 27.6402 23.24 31.1502C24.16 33.0602 24.89 34.5701 25.19 35.5401C25.95 37.9601 25.79 39.7801 25.74 40.3801C25.37 44.9701 21.81 51.5101 15.04 51.8501C14.75 51.8601 14.47 51.8701 14.19 51.8701ZM29.82 4.44015C26.89 4.44015 24.09 4.54015 23 5.08015C21.39 5.88015 19.55 7.18015 18.58 9.90015C20.49 7.80015 23.22 6.33015 26.06 5.96015C27.95 5.71015 30.9 5.70015 33.91 5.72015L33.6 4.47015C33.17 4.47015 32.74 4.47015 32.31 4.46015C31.49 4.46015 30.65 4.44015 29.83 4.44015H29.82Z" fill="#1C1D1D"/>
<path d="M62.39 23.2454C61.42 23.2454 60.45 22.7454 59.72 21.8354C58.6 20.4454 58.56 18.0654 59.62 16.6554C60.71 15.2154 62.17 14.4054 63.59 13.6254C65.93 12.3354 67.36 11.4154 67.48 8.8254C67.53 7.5854 67.23 6.6254 66.59 6.0454C65.96 5.4754 65.02 5.2854 63.95 5.5254C62.78 5.7854 60.63 6.1454 58.9 6.4454C57.94 6.6054 57.12 6.7454 56.72 6.8254C51.12 7.9354 44.79 8.2554 41.51 8.3454C40.82 8.3654 40.01 8.3654 39.14 8.3654C38.51 8.3654 38 7.8154 38 7.1454C38 6.4754 38.51 5.9354 39.14 5.9354C39.27 5.9554 39.33 5.9354 39.42 5.9354C40.15 5.9354 40.85 5.9354 41.44 5.9154C44.65 5.8254 50.85 5.5154 56.3 4.4354C56.72 4.3554 57.55 4.2154 58.54 4.0454C60.24 3.7554 62.36 3.3954 63.48 3.1554C65.26 2.7554 66.88 3.1354 68.06 4.2054C69.24 5.2754 69.84 6.9654 69.75 8.9554C69.57 13.0754 66.94 14.5254 64.63 15.7954C63.37 16.4954 62.17 17.1454 61.39 18.1954C61.04 18.6654 60.99 19.7154 61.44 20.2754C61.79 20.7154 62.19 20.9154 62.56 20.8154C62.88 20.7354 63.13 20.4454 63.22 20.0554C63.37 19.4054 63.99 19.0154 64.6 19.1754C65.21 19.3354 65.58 19.9954 65.43 20.6454C65.13 21.9154 64.23 22.8954 63.08 23.1854C62.85 23.2454 62.61 23.2754 62.38 23.2754L62.39 23.2454Z" fill="#1C1D1D"/>
<path d="M14.19 51.936C10.5 51.936 7.29 50.716 5.08 48.466C3.06 46.406 2 43.596 2 40.336C2 39.766 2.37 39.266 2.89 39.146C3.41 39.026 3.94 39.306 4.17 39.826C4.56 40.726 5.09 41.296 5.8 41.576C8.06 42.446 11.94 40.446 15.36 38.686C19.01 36.806 22.16 35.186 24.19 36.446C25.13 37.026 25.66 38.116 25.76 39.666C25.76 39.696 25.76 39.726 25.76 39.756C25.76 44.506 21.94 51.576 15.03 51.916C14.74 51.926 14.46 51.936 14.18 51.936H14.19ZM4.83 43.776C5.23 44.896 5.84 45.876 6.65 46.706C8.57 48.666 11.52 49.656 14.93 49.486C20.88 49.186 23.47 42.956 23.49 39.796C23.45 39.316 23.35 38.736 23.05 38.546C22.07 37.936 18.9 39.566 16.35 40.876C12.34 42.936 8.19 45.076 5.03 43.856C4.96 43.826 4.89 43.806 4.83 43.776Z" fill="#1C1D1D"/>
<path d="M40.6176 6.06C43.9676 6 48.1276 5.8 51.8276 5.39C52.3176 5.33 53.0676 5.02 51.9676 4.79C50.6976 4.53 48.2476 4.22 43.5676 4.11C42.7676 4.09 40.6876 4.03 38.3776 4C38.1576 4 37.9176 4.2 38.0276 4.51C38.1176 4.76 38.2276 5.08 38.3676 5.34C38.6676 5.91 38.9476 6.05 40.6076 6.05L40.6176 6.06Z" fill="#865D37"/>
<path d="M100.219 35.1951C90.059 35.7951 91.459 29.9051 93.069 22.4751C91.529 24.2551 88.269 23.8351 86.169 23.8651C82.159 23.9351 80.759 19.8951 81.079 16.5051C71.609 18.1851 71.819 3.39511 80.639 4.49511C80.879 2.03511 83.129 0.0251081 85.609 0.0651081C88.739 0.345108 95.269 -1.14489 96.939 2.60511C98.549 -1.10489 105.129 0.325108 108.219 0.0651081C110.839 0.0151081 113.169 2.27511 113.219 4.87511C116.599 4.97511 118.589 8.45511 117.839 11.5651C117.579 15.6551 113.279 16.4951 109.929 16.1651L104.989 31.6951C104.329 33.7751 102.399 35.1751 100.229 35.1751L100.219 35.1951Z" fill="#EFEFEF"/>
<path d="M133.341 35.5143C118.291 35.1943 127.881 23.6943 130.841 16.3443H125.271C124.631 19.2243 123.161 22.6643 119.671 22.5243C116.181 22.7843 111.111 22.6043 110.761 18.0443C108.621 4.25426 110.431 4.21426 123.571 4.59426C124.091 2.12426 126.021 0.0242609 128.671 0.0742609C132.251 -0.145739 137.691 -0.185739 138.031 4.59426C143.351 4.62426 156.231 2.90426 151.821 12.4243C149.341 14.6643 137.671 36.6743 133.331 35.5043L133.341 35.5143Z" fill="#EFEFEF"/>
<path d="M159.601 35.806C147.351 35.716 151.811 27.9159 154.391 20.3859C151.781 20.0759 146.121 21.0959 144.311 18.5759C141.521 15.3859 143.381 8.98595 148.031 9.00595L158.391 8.77595C159.581 5.45595 160.661 -0.704051 165.501 0.0659488C170.901 0.335949 179.701 1.08595 175.731 8.88595C178.191 9.10595 182.661 8.34595 184.381 10.6759C187.171 13.8659 185.311 20.2659 180.661 20.2459L170.171 20.4859C167.981 23.4959 164.741 36.4459 159.621 35.8159L159.601 35.806Z" fill="#EFEFEF"/>
<path d="M199.501 35.3964C190.231 35.3364 189.611 30.8664 193.081 23.4164C191.941 23.3364 189.001 23.5064 187.951 23.0464C186.271 24.4164 183.261 23.6864 181.301 23.5364C172.421 22.5364 179.951 9.44643 180.531 4.86643C181.151 2.72643 183.111 1.24643 185.341 1.24643C188.741 2.10643 214.691 -1.03357 216.111 3.63643C219.701 6.90643 204.691 29.3364 203.961 32.6664C203.101 34.3464 201.371 35.3864 199.511 35.3864L199.501 35.3964Z" fill="#EFEFEF"/>
<path d="M231.341 35.5143C216.291 35.1943 225.881 23.6943 228.841 16.3443H223.271C222.631 19.2243 221.161 22.6643 217.671 22.5243C214.181 22.7843 209.111 22.6043 208.761 18.0443C206.621 4.24426 208.431 4.21426 221.571 4.59426C222.091 2.12426 224.021 0.0242609 226.671 0.0742609C230.251 -0.145739 235.691 -0.185739 236.031 4.59426C241.351 4.62426 254.231 2.90426 249.821 12.4243C247.341 14.6643 235.671 36.6743 231.331 35.5043L231.341 35.5143Z" fill="#EFEFEF"/>
<path d="M271.224 34.2822C268.354 33.6322 243.814 35.4322 242.324 32.2422C239.514 29.0422 241.374 22.5922 246.054 22.6322L260.724 22.3522L261.544 12.9922C258.674 12.4422 246.064 14.0622 244.174 11.0722C241.364 7.87224 243.244 1.41224 247.924 1.46224C250.764 2.03224 275.424 -0.587756 276.924 2.66224C280.024 4.44224 275.854 26.8822 276.214 29.7222C275.984 32.3122 273.824 34.2822 271.234 34.2822H271.224Z" fill="#EFEFEF"/>
<path d="M100.15 35.1851C89.9895 35.7851 91.3895 29.8951 92.9995 22.4651C91.4695 24.2551 88.1995 23.8351 86.0895 23.8651C82.0795 23.9351 80.6795 19.8951 80.9995 16.5051C77.5595 17.1351 73.6195 14.9951 74.0295 11.0951C73.7295 7.19511 76.4495 3.79511 80.5595 4.49511C80.7995 2.03511 83.0495 0.0251081 85.5295 0.0651081C88.6595 0.345108 95.1995 -1.14489 96.8695 2.60511C98.4795 -1.11489 105.06 0.325108 108.16 0.0651081C110.78 0.0151081 113.11 2.27511 113.16 4.87511C116.54 4.97511 118.53 8.45511 117.78 11.5651C117.52 15.6551 113.22 16.4951 109.87 16.1651L104.93 31.6951C104.27 33.7751 102.34 35.1751 100.17 35.1751L100.15 35.1851Z" fill="#EFEFEF"/>
<path d="M133.341 35.4943C118.291 35.1743 127.881 23.6743 130.851 16.3343H125.271C124.631 19.2143 123.161 22.6543 119.671 22.5143C116.181 22.7743 111.111 22.5943 110.761 18.0343C108.621 4.23426 110.431 4.21426 123.571 4.59426C124.101 2.12426 126.021 0.024261 128.681 0.074261C132.261 -0.145739 137.701 -0.18574 138.051 4.59426C143.371 4.62426 156.251 2.90426 151.841 12.4243C149.361 14.6543 137.681 36.6643 133.351 35.4943H133.341Z" fill="#EFEFEF"/>
<path d="M159.621 35.806C147.371 35.716 151.821 27.916 154.401 20.386C151.791 20.076 146.121 21.096 144.311 18.566C141.521 15.376 143.381 8.97605 148.031 8.99605L158.391 8.76605C159.591 5.44605 160.651 -0.703954 165.501 0.0660457C170.901 0.336046 179.701 1.08605 175.731 8.87605C178.191 9.09605 182.671 8.33605 184.381 10.666C187.171 13.856 185.301 20.256 180.661 20.236L170.161 20.476C167.971 23.486 164.731 36.436 159.611 35.806H159.621Z" fill="#EFEFEF"/>
<path d="M198.504 35.3864C189.244 35.3364 188.614 30.8564 192.084 23.4064C190.944 23.3264 187.994 23.4964 186.954 23.0364C185.274 24.4064 182.264 23.6764 180.304 23.5264C171.424 22.5264 178.944 9.43643 179.524 4.86643C180.144 2.72643 182.104 1.24643 184.334 1.24643C187.734 2.10643 213.694 -1.03357 215.114 3.63643C218.694 6.91643 203.684 29.3364 202.954 32.6564C202.094 34.3364 200.364 35.3764 198.504 35.3764V35.3864Z" fill="#EFEFEF"/>
<path d="M231.339 35.4943C216.289 35.1743 225.879 23.6743 228.839 16.3343H223.269C222.629 19.2143 221.159 22.6543 217.669 22.5143C214.179 22.7743 209.109 22.5943 208.759 18.0343C206.619 4.23426 208.439 4.21426 221.569 4.59426C222.089 2.12426 224.019 0.024261 226.669 0.074261C230.249 -0.145739 235.689 -0.18574 236.039 4.59426C241.359 4.62426 254.239 2.90426 249.829 12.4243C247.349 14.6543 235.669 36.6643 231.339 35.4943Z" fill="#EFEFEF"/>
<path d="M271.234 34.2679C268.364 33.6179 243.804 35.4279 242.324 32.2279C239.514 29.0279 241.374 22.5779 246.054 22.6179L260.724 22.3379L261.544 12.9879C258.674 12.4379 246.064 14.0579 244.174 11.0679C241.364 7.85793 243.244 1.40793 247.924 1.45793C250.754 2.02793 275.434 -0.582072 276.934 2.65793C280.044 4.43793 275.864 26.8679 276.224 29.7079C275.994 32.2979 273.834 34.2679 271.244 34.2679H271.234Z" fill="#EFEFEF"/>
<path d="M128.122 48.0788C128.102 47.1488 128.102 46.0488 128.392 45.2388C126.932 41.1788 129.682 36.1988 134.372 37.1088C138.792 37.1388 145.762 35.9588 145.862 42.2788C145.672 46.6488 146.942 53.1888 140.632 53.3288C135.872 52.6688 128.432 55.4788 128.122 48.0888V48.0788ZM134.372 53.3088C134.372 53.3088 134.332 53.3088 134.322 53.3088C134.322 53.3088 134.352 53.3088 134.372 53.3088Z" fill="#EFEFEF"/>
<path d="M143.1 49.5355C136.28 49.8155 136.31 37.7055 143.13 38.0055C148.22 38.5055 157.74 35.9455 156.38 44.3855C155.8 51.4755 147.91 48.7855 143.1 49.5355Z" fill="#EFEFEF"/>
<path d="M157.398 53.3452C150.438 53.9952 148.248 47.9352 149.218 42.0952C147.918 36.5252 154.338 33.1052 158.698 36.1252C162.598 35.1152 166.948 39.8852 165.808 43.4752C166.928 44.9152 166.798 47.1052 166.368 48.7552C165.998 53.0452 160.388 53.5152 157.408 53.3452H157.398Z" fill="#EFEFEF"/>
<path d="M164.101 49.5355C157.281 49.8255 157.311 37.7055 164.121 38.0055C169.211 38.4955 178.741 35.9455 177.371 44.3955C176.781 51.4755 168.891 48.7755 164.101 49.5255V49.5355Z" fill="#EFEFEF"/>
<path d="M175.652 52.0933C172.302 52.2633 168.882 48.0133 170.432 44.6033C168.452 40.7933 173.702 35.4333 177.582 37.4333C181.872 35.5633 186.532 40.6333 184.732 44.5833C186.492 48.7533 181.862 53.4933 177.612 51.7333C177.002 51.9733 176.342 52.1033 175.652 52.1033V52.0933ZM172.102 50.6833C172.292 50.8333 172.512 50.9833 172.752 51.1233C172.522 50.9933 172.302 50.8433 172.102 50.6833ZM177.172 42.8533V42.8733L177.202 42.8333L177.172 42.8533Z" fill="#EFEFEF"/>
<path d="M188.201 54.6042C184.541 54.3043 182.791 51.7842 181.801 49.3542C176.831 48.1842 176.701 39.5843 181.611 38.2243C183.541 34.3243 193.901 33.5843 195.621 38.1143C200.941 39.5043 199.991 48.3543 194.961 49.3643C193.891 51.7243 191.221 54.6143 188.211 54.6042H188.201Z" fill="#EFEFEF"/>
<path d="M198.904 54.0755C195.684 54.1055 193.094 50.7755 192.934 47.7455C191.314 44.1355 191.434 37.2555 196.284 36.3755C198.284 33.2555 204.104 33.2055 206.154 36.2455C216.464 40.2555 207.094 53.5555 198.914 54.0755H198.904ZM192.194 43.9555C192.194 43.9555 192.194 43.9855 192.194 44.0055C192.194 43.9855 192.194 43.9755 192.194 43.9555Z" fill="#EFEFEF"/>
<path d="M210.548 54.2027C207.728 54.7927 203.388 49.5027 204.768 46.5727C202.768 42.9327 204.788 37.1427 209.478 37.4727C211.458 34.2027 217.448 34.1827 219.458 37.3727C226.448 37.4227 225.798 49.3527 219.018 49.0827C217.308 52.0127 214.238 54.0027 210.538 54.1927L210.548 54.2027Z" fill="#EFEFEF"/>
<path d="M85.79 11.4L79 11.48L79.18 9.43L85.71 9.51L85.51 5.01H92.49L91.5 9.56L100.34 9.67L101.19 5H108.12L106.63 9.72L112.87 9.8L112.76 11.06L106.16 11.14L100.12 30.11L96.69 29.97L100.05 11.2L91.14 11.31L89.5 18.79H86.06L85.78 11.37L85.79 11.4Z" fill="#231815"/>
<path d="M129.98 29.93L138.84 11.27H121.68L119.76 17.45H115.83L115 9.52H127.29L128.77 5H133.15L133.84 9.52H147.8L133.43 30.43L129.98 29.92V29.93Z" fill="#231815"/>
<path d="M156.21 30.39L161.3 15.52L148 15.21L148.11 13.97L161.95 13.66L164.92 5L171.64 5.73L167.8 13.65L180.61 13.96L180.5 15.2L166.95 15.51L159.57 30.77L156.21 30.38V30.39Z" fill="#231815"/>
<path d="M195.18 29.74L199.38 18.3L188.83 18.08L188.94 16.82L200.02 16.57L203.31 7.66H190.58L184.36 18.65L181 18.31L184.54 6H211.04L198.7 30.14L195.19 29.75L195.18 29.74Z" fill="#231815"/>
<path d="M227.98 29.93L236.84 11.27H219.68L217.76 17.45H213.83L213 9.52H225.29L226.77 5H231.15L231.84 9.52H245.8L231.43 30.43L227.98 29.92V29.93Z" fill="#231815"/>
<path d="M246 28.83L246.11 27.56L265.27 27.19L266.95 8.02L247.85 7.65L247.96 6.39L273.22 6L271.19 29.21L246 28.82V28.83Z" fill="#231815"/>
<path d="M85.8 11.38L79 11.47L79.18 9.42L85.72 9.5L85.52 5.01H92.5L91.51 9.56L100.35 9.67L101.2 5H108.13L106.63 9.72L112.87 9.81L112.76 11.07L106.16 11.15L100.12 30.12L96.69 29.98L100.05 11.21L91.14 11.32L89.5 18.79H86.06L85.77 11.37L85.8 11.38Z" fill="#231815"/>
<path d="M130 29.92L138.86 11.26H121.69L119.77 17.44H115.83L115 9.52H127.3L128.78 5H133.16L133.84 9.52H147.81L133.44 30.42L129.99 29.91L130 29.92Z" fill="#231815"/>
<path d="M156.21 30.37L161.3 15.51L148 15.2L148.11 13.96L161.96 13.65L164.93 5L171.65 5.73L167.81 13.65L180.62 13.96L180.51 15.2L166.96 15.51L159.58 30.77L156.22 30.37H156.21Z" fill="#231815"/>
<path d="M195.2 29.74L199.4 18.3L188.84 18.08L188.95 16.81L200.04 16.56L203.33 7.66H190.59L184.37 18.64L181 18.31L184.54 6H211.05L198.71 30.14L195.2 29.75V29.74Z" fill="#231815"/>
<path d="M228 29.92L236.86 11.26H219.69L217.77 17.44H213.83L213 9.52H225.3L226.78 5H231.16L231.84 9.52H245.81L231.44 30.42L227.99 29.91L228 29.92Z" fill="#231815"/>
<path d="M246 28.81L246.11 27.54L265.27 27.18L266.95 8.02L247.85 7.66L247.96 6.39L273.23 6L271.2 29.21L246 28.82V28.81Z" fill="#231815"/>
<path d="M133.03 48.04C133.03 47.81 133.02 47.23 133.03 46.98C133.03 46.82 133.02 46.66 133.23 46.66C133.39 46.66 133.58 46.71 133.74 46.73C134.02 46.74 134.21 46.78 134.46 46.78H136.21C137.21 46.78 138.21 46.79 139.23 46.78C139.23 46.31 139.24 45.93 139.24 44.95C139.24 44.23 139.23 43.87 139.24 43.39C138.18 43.4 137.05 43.38 135.93 43.39C135.16 43.4 134.4 43.44 133.7 43.53C133.54 43.54 133.36 43.61 133.2 43.61C133 43.61 133 43.46 133 43.27V42.24C133 42.09 133.01 42 133.18 42C133.35 42 133.5 42.04 133.67 42.04C133.87 42.04 134.09 42.07 134.29 42.07C135.26 42.08 136.24 42.08 137.21 42.08C137.76 42.08 138.32 42.08 138.86 42.07C139.28 42.06 139.71 42.06 140.13 42.03C140.25 42.02 140.39 42 140.52 42C140.7 42 140.78 42.03 140.78 42.23C140.78 42.46 140.74 42.69 140.73 42.92C140.72 43.31 140.69 43.72 140.69 44.11V45.77C140.69 46.38 140.72 46.97 140.76 47.6C140.77 47.75 140.8 47.88 140.8 48.03C140.8 48.22 140.73 48.27 140.56 48.27C140.41 48.27 140.24 48.23 140.07 48.21C139.76 48.18 139.43 48.17 139.16 48.16C138.34 48.11 137.5 48.12 136.67 48.12C135.66 48.12 134.6 48.18 133.59 48.31C133.47 48.32 133.31 48.38 133.18 48.38C133.03 48.38 133.05 48.19 133.05 48.03L133.03 48.04Z" fill="#231815"/>
<path d="M143 44.29V43.37C143 43.18 143 43.06 143.15 43.06C143.29 43.06 143.55 43.1 143.72 43.12C143.93 43.13 144.14 43.16 144.37 43.16H148.82C149.52 43.16 150.22 43.12 150.89 43.07C151.08 43.05 151.26 43 151.45 43C151.55 43 151.56 43.06 151.56 43.15C151.56 43.2 151.5 43.4 151.46 43.63C151.42 43.88 151.4 44.09 151.35 44.34C151.33 44.49 151.3 44.53 151.16 44.53C151.07 44.53 150.96 44.52 150.86 44.51C149.51 44.44 148.14 44.4 146.78 44.4C146.23 44.4 145.68 44.41 145.13 44.44C144.58 44.48 144.06 44.49 143.49 44.55C143.39 44.56 143.23 44.6 143.12 44.6C143 44.6 143 44.5 143 44.3V44.29Z" fill="#231815"/>
<path d="M155.01 48C154.66 47.89 154.37 47.7 154.22 47.43C154.03 47.13 154 46.64 154 46.31C154 45.58 154 44.84 154.03 44.09C154.06 43.6 154.07 43.12 154.07 42.63C154.07 41.98 154.11 41.25 154.04 40.6C154.03 40.48 154.01 40.36 154.01 40.23C154.01 40.05 154.08 40.01 154.25 40.01C154.6 40 154.97 40 155.32 40C155.54 40 155.66 40.08 155.66 40.2C155.66 40.28 155.65 40.38 155.63 40.48C155.6 40.67 155.56 40.87 155.55 41.04C155.5 41.66 155.44 42.31 155.43 42.93C156.53 42.67 157.62 42.35 158.6 41.77C158.9 41.59 159.24 41.34 159.47 41.09C159.52 41.02 159.6 40.9 159.7 40.9C159.75 40.9 159.86 40.95 159.98 41.08C160.21 41.31 160.47 41.58 160.68 41.82C160.77 41.91 160.83 41.98 160.83 42.08C160.83 42.24 160.63 42.35 160.51 42.43C160.13 42.66 159.81 42.82 159.4 43C158.48 43.39 157.53 43.76 156.56 44C156.18 44.09 155.79 44.16 155.41 44.23C155.4 44.83 155.38 45.41 155.38 46C155.38 46.16 155.35 46.5 155.47 46.61C155.54 46.68 155.71 46.72 155.92 46.75C156.31 46.8 156.83 46.8 157.03 46.8C158 46.8 158.94 46.69 159.9 46.54C160.32 46.47 160.7 46.36 161.14 46.26C161.23 46.25 161.34 46.21 161.44 46.21C161.52 46.21 161.56 46.22 161.56 46.3C161.56 46.38 161.52 46.56 161.51 46.64C161.44 47.01 161.39 47.34 161.32 47.68C161.27 47.96 161.25 48.02 160.91 48.06C160.02 48.17 157.72 48.25 157.26 48.25C156.7 48.25 155.74 48.22 155 47.99L155.01 48Z" fill="#231815"/>
<path d="M164 44.29V43.37C164 43.18 164 43.06 164.15 43.06C164.29 43.06 164.55 43.1 164.72 43.12C164.93 43.13 165.14 43.16 165.36 43.16H169.82C170.52 43.16 171.22 43.12 171.89 43.07C172.08 43.05 172.26 43 172.45 43C172.55 43 172.56 43.06 172.56 43.15C172.56 43.2 172.5 43.4 172.46 43.63C172.42 43.88 172.4 44.09 172.35 44.34C172.32 44.49 172.3 44.53 172.16 44.53C172.07 44.53 171.96 44.52 171.86 44.51C170.51 44.44 169.14 44.4 167.78 44.4C167.23 44.4 166.68 44.41 166.13 44.44C165.58 44.48 165.06 44.49 164.49 44.55C164.39 44.56 164.23 44.6 164.12 44.6C164 44.6 164 44.5 164 44.3V44.29Z" fill="#231815"/>
<path d="M178.44 44.32C178.28 44.51 178.36 44.65 178.44 44.76C178.55 44.88 178.7 45.04 178.81 45.14C178.94 45.29 179.03 45.42 179.18 45.48C179.25 45.6 179.42 45.79 179.55 45.87C179.7 45.96 179.73 46.03 179.85 46.17C179.95 46.23 180.03 46.35 180.03 46.45C180.03 46.56 179.99 46.61 179.91 46.68C179.81 46.77 179.75 46.81 179.72 46.86C179.7 46.93 179.6 47.02 179.49 47.02H179.46C179.28 47.01 179.27 46.91 179.15 46.85C179.04 46.73 178.95 46.64 178.85 46.53C178.72 46.41 178.62 46.28 178.52 46.15C178.41 46.07 178.28 45.87 178.14 45.79C178.02 45.67 177.88 45.54 177.76 45.44C177.58 45.3 177.32 45.38 177.23 45.5C177.11 45.61 177.08 45.7 176.92 45.79C176.81 45.95 176.69 46.01 176.58 46.16C176.45 46.25 176.29 46.46 176.21 46.53C176.07 46.65 175.96 46.83 175.82 46.91C175.79 46.95 175.75 47.03 175.58 47.03C175.49 47.03 175.41 46.92 175.34 46.89C175.23 46.83 175.22 46.75 175.15 46.71C175.08 46.67 175.02 46.56 175.02 46.42V46.39C175.04 46.33 175.06 46.28 175.16 46.17C175.3 46.03 175.38 46.02 175.52 45.85C175.67 45.73 175.75 45.61 175.9 45.47C176.03 45.33 176.13 45.26 176.27 45.1C176.41 45.03 176.47 44.86 176.64 44.73C176.78 44.55 176.72 44.38 176.59 44.25C176.47 44.14 176.36 44.07 176.27 43.93C176.19 43.83 176.01 43.71 175.9 43.57C175.8 43.42 175.7 43.35 175.52 43.2C175.37 43.07 175.35 43.01 175.15 42.86C175.08 42.81 175 42.71 175 42.59C175 42.45 175.1 42.38 175.15 42.33C175.23 42.24 175.3 42.19 175.34 42.14C175.42 42.06 175.44 42.01 175.54 42.01H175.63C175.71 42.01 175.73 42.06 175.83 42.13C175.96 42.22 176.04 42.38 176.21 42.51C176.36 42.62 176.4 42.78 176.58 42.87C176.66 43.02 176.87 43.12 176.96 43.24C177.07 43.41 177.11 43.46 177.25 43.55C177.36 43.69 177.57 43.71 177.73 43.59C177.86 43.47 177.94 43.35 178.11 43.24C178.24 43.11 178.34 42.98 178.48 42.87C178.6 42.79 178.72 42.65 178.86 42.51C179 42.44 179.06 42.27 179.18 42.16C179.27 42.09 179.28 42.01 179.43 42H179.45C179.57 42 179.67 42.07 179.71 42.13C179.76 42.21 179.84 42.23 179.91 42.33C179.97 42.42 180.03 42.45 180.03 42.55V42.57C180.03 42.7 179.97 42.73 179.91 42.81C179.76 42.96 179.66 43.09 179.54 43.2C179.39 43.34 179.23 43.47 179.16 43.57C179.04 43.67 178.94 43.8 178.8 43.9C178.67 44.01 178.53 44.13 178.43 44.3L178.44 44.32Z" fill="#231815"/>
<path d="M187.81 49.28C187.57 49.1 187.42 48.97 187.19 48.81C187.1 48.74 186.89 48.63 186.89 48.55C186.89 48.48 187.04 48.43 187.15 48.39C187.26 48.35 187.42 48.28 187.47 48.27C187.71 48.16 187.93 48.07 188.15 47.91C189.35 47.03 189.54 45.54 189.57 44.16H188.62C188.04 44.15 187.97 44.16 187.42 44.16V44.98C187.43 45.49 187.49 45.98 187.49 46.44C187.49 46.68 187.42 46.67 187.17 46.67H186.2C186.08 46.67 185.98 46.64 185.98 46.55C185.98 46.47 185.99 46.35 186.01 46.25C186.06 45.56 186.09 44.88 186.09 44.19C185.66 44.2 185.22 44.23 184.8 44.26C184.44 44.29 184.08 44.34 183.73 44.38C183.55 44.41 183.34 44.46 183.16 44.46C183 44.46 183 44.35 183 44.22V43.15C183 42.99 183.01 42.91 183.15 42.89C183.31 42.89 183.51 42.93 183.68 42.94C183.94 42.95 184.21 42.98 184.46 42.98C185 42.98 185.54 42.95 186.08 42.94C186.09 42.63 186.09 42.3 186.09 41.99C186.09 41.68 186.09 41.41 186.08 41.12C186.07 41.04 186.07 40.89 186.04 40.77C186.03 40.65 185.99 40.54 186 40.47C186 40.35 186.12 40.34 186.26 40.34C186.58 40.33 186.96 40.33 187.27 40.33C187.4 40.33 187.57 40.36 187.57 40.53C187.57 40.91 187.5 41.4 187.48 41.77C187.45 42.16 187.45 42.54 187.44 42.92C188.16 42.91 188.86 42.91 189.58 42.91V41.84C189.58 41.56 189.51 40.72 189.46 40.46C189.45 40.39 189.42 40.24 189.42 40.16C189.42 40 189.57 40.01 189.7 40.01C190.05 40 190.47 40 190.77 40C190.91 40 191.04 40.01 191.04 40.19C191.04 40.61 190.96 41.01 190.95 41.42C190.94 41.91 190.92 42.39 190.92 42.88H192.27C192.69 42.88 193.12 42.87 193.56 42.84C193.71 42.83 193.86 42.79 194.01 42.79C194.08 42.79 194.2 42.8 194.2 42.9C194.2 42.98 194.13 43.18 194.08 43.43C194 43.74 193.93 44.09 193.9 44.23C193.87 44.38 193.86 44.41 193.76 44.41C193.61 44.4 193.27 44.34 193.07 44.32C192.8 44.31 192.54 44.27 192.29 44.25C191.83 44.22 191.37 44.21 190.92 44.2C190.87 46 190.61 47.51 189.19 48.83C189.08 48.92 188.73 49.22 188.46 49.4C188.34 49.48 188.22 49.53 188.16 49.53C188.1 49.53 187.97 49.41 187.82 49.29L187.81 49.28Z" fill="#231815"/>
<path d="M198.57 48.78C198.42 48.58 198.22 48.25 198 47.97C197.91 47.85 197.82 47.77 197.82 47.67C197.81 47.56 198.08 47.53 198.19 47.51C198.6 47.43 199.01 47.32 199.41 47.19C201.2 46.58 202.64 45.3 203.4 43.56C203.54 43.25 203.67 42.95 203.75 42.63C203.45 42.62 203.14 42.62 202.83 42.62C201.41 42.62 199.98 42.62 198.56 42.65C198.56 42.91 198.55 43.16 198.55 43.42C198.55 43.88 198.59 44.35 198.59 44.81C198.59 45.07 198.48 45.04 198.25 45.04C197.91 45.05 197.55 45.04 197.22 45.04C197.09 45.04 197 45 197 44.85C197 44.69 197.05 44.53 197.07 44.36C197.11 43.94 197.11 43.52 197.11 43.1C197.11 42.68 197.11 42.25 197.1 41.83C197.09 41.69 197.06 41.55 197.06 41.41C197.06 41.29 197.1 41.21 197.24 41.21C197.39 41.21 197.54 41.25 197.67 41.27C198.28 41.32 198.9 41.31 199.51 41.31C199.82 41.31 200.12 41.31 200.43 41.3C200.43 41.06 200.44 40.8 200.44 40.54C200.44 40.22 200.43 39.89 200.37 39.58C200.34 39.46 200.32 39.32 200.32 39.22C200.32 39.04 200.43 39.04 200.58 39.03C200.9 39 201.61 39 201.72 39C201.87 39 202 39.03 202.02 39.19C202.02 39.34 201.99 39.51 201.95 39.66C201.88 40.04 201.87 40.42 201.87 40.8V41.29H202.69C203.01 41.29 203.87 41.3 204.14 41.21C204.26 41.17 204.46 40.98 204.56 40.98C204.67 40.98 204.75 41.06 204.87 41.18C205.1 41.41 205.34 41.68 205.44 41.79C205.58 41.97 205.81 42.24 205.81 42.47C205.81 42.58 205.59 42.71 205.51 42.77C205.36 42.88 205.25 43 205.16 43.15C205.07 43.31 205 43.49 204.92 43.66C204.77 43.97 204.64 44.28 204.47 44.59C203.47 46.5 201.94 47.7 200.02 48.66C199.89 48.73 199.51 48.86 199.22 48.94C199.08 48.98 198.9 49.02 198.81 49.02C198.66 49.02 198.65 48.9 198.58 48.79L198.57 48.78Z" fill="#231815"/>
<path d="M210.2 48.96L209.71 48.26C209.59 48.07 209.51 48.02 209.52 47.91C209.53 47.82 209.64 47.82 209.76 47.79C209.87 47.78 209.99 47.76 210.04 47.75C210.77 47.6 211.49 47.45 212.16 47.1C213.58 46.34 213.67 45.36 213.7 43.87C212.62 43.88 211.54 43.92 210.45 44C210.06 44.03 209.62 44.09 209.23 44.08C209.01 44.08 209 44.04 209 43.81V42.71C209 42.57 209.01 42.41 209.19 42.41C209.34 42.41 209.49 42.46 209.65 42.48C209.85 42.49 210.07 42.52 210.29 42.52C210.76 42.52 211.22 42.53 211.7 42.53H213.72V41.45C213.71 41.17 213.69 40.89 213.67 40.62C213.66 40.49 213.62 40.31 213.62 40.17C213.62 40.06 213.69 40.02 213.82 40.01C214.12 40 214.75 40 214.98 40C215.18 40 215.26 40.03 215.26 40.2C215.26 40.51 215.19 41.08 215.17 41.47L215.13 42.53H215.77C216.64 42.53 217.51 42.52 218.38 42.44C218.66 42.41 218.96 42.32 219.25 42.32C219.37 42.32 219.39 42.33 219.4 42.45C219.4 42.52 219.36 42.75 219.32 42.96C219.28 43.2 219.25 43.5 219.23 43.72C219.22 43.94 219.24 44.03 219.04 44.03L217.97 43.98C217.02 43.95 216.08 43.94 215.13 43.9C215.1 44.66 215.05 45.69 214.72 46.39C214.1 47.7 212.79 48.57 211.42 48.97C211.18 49.05 210.76 49.15 210.5 49.15C210.35 49.15 210.28 49.07 210.2 48.96Z" fill="#231815"/>
</g>
<defs>
<clipPath id="clip0_132_5">
<rect width="278.11" height="53.85" fill="white"/>
</clipPath>
</defs>
</svg>
